<mxfile host="app.diagrams.net" modified="2024-06-09T01:48:44.903Z" agent="Mozilla/5.0 (Windows NT 10.0; Win64; x64) AppleWebKit/537.36 (KHTML, like Gecko) Chrome/125.0.0.0 Safari/537.36" etag="e_s0Nb9JJPr-SXqtjxpo" version="24.5.2" type="device">
  <diagram name="Page-1" id="S-q9fnaZtid0qY2u_Fst">
    <mxGraphModel dx="1900" dy="522" grid="1" gridSize="10" guides="1" tooltips="1" connect="1" arrows="1" fold="1" page="1" pageScale="1" pageWidth="850" pageHeight="1100" math="0" shadow="0">
      <root>
        <mxCell id="0" />
        <mxCell id="1" parent="0" />
        <mxCell id="8Ok6UQOYoZwV1uECa3Be-11" value="" style="rounded=0;whiteSpace=wrap;html=1;" vertex="1" parent="1">
          <mxGeometry x="-60" y="60" width="950" height="490" as="geometry" />
        </mxCell>
        <mxCell id="8Ok6UQOYoZwV1uECa3Be-1" value="External Services&lt;div&gt;&lt;br&gt;(Email service: Nodemailer for OTP, Password Recovery)&lt;br&gt;&lt;/div&gt;" style="rounded=1;whiteSpace=wrap;html=1;" vertex="1" parent="1">
          <mxGeometry x="335" y="100" width="180" height="110" as="geometry" />
        </mxCell>
        <mxCell id="8Ok6UQOYoZwV1uECa3Be-2" value="Client&amp;nbsp;&lt;br&gt; (React, Web/Mobile) &amp;nbsp; &amp;nbsp; &amp;nbsp;&amp;nbsp;" style="rounded=1;whiteSpace=wrap;html=1;" vertex="1" parent="1">
          <mxGeometry x="-10" y="345" width="180" height="80" as="geometry" />
        </mxCell>
        <mxCell id="8Ok6UQOYoZwV1uECa3Be-3" value="Server&lt;br&gt;(Node.js, Express.js, Socket.io)&amp;nbsp; &amp;nbsp;(Authentication, Message Storage, Client Requests)&amp;nbsp;" style="rounded=1;whiteSpace=wrap;html=1;" vertex="1" parent="1">
          <mxGeometry x="315" y="330" width="220" height="110" as="geometry" />
        </mxCell>
        <mxCell id="8Ok6UQOYoZwV1uECa3Be-4" value="Database&amp;nbsp;&lt;br&gt;(MongoDB, Mongoose)&lt;br&gt;(User Info, Chat&amp;nbsp;Messages) &amp;nbsp; &amp;nbsp; &amp;nbsp;&amp;nbsp;" style="rounded=1;whiteSpace=wrap;html=1;" vertex="1" parent="1">
          <mxGeometry x="670" y="330" width="170" height="110" as="geometry" />
        </mxCell>
        <mxCell id="8Ok6UQOYoZwV1uECa3Be-5" value="" style="endArrow=classic;startArrow=classic;html=1;rounded=0;exitX=1;exitY=0.5;exitDx=0;exitDy=0;entryX=0;entryY=0.5;entryDx=0;entryDy=0;" edge="1" parent="1" source="8Ok6UQOYoZwV1uECa3Be-2" target="8Ok6UQOYoZwV1uECa3Be-3">
          <mxGeometry width="50" height="50" relative="1" as="geometry">
            <mxPoint x="220" y="420" as="sourcePoint" />
            <mxPoint x="270" y="370" as="targetPoint" />
          </mxGeometry>
        </mxCell>
        <mxCell id="8Ok6UQOYoZwV1uECa3Be-7" value="" style="endArrow=classic;startArrow=classic;html=1;rounded=0;exitX=1;exitY=0.5;exitDx=0;exitDy=0;entryX=0;entryY=0.5;entryDx=0;entryDy=0;" edge="1" parent="1" source="8Ok6UQOYoZwV1uECa3Be-3" target="8Ok6UQOYoZwV1uECa3Be-4">
          <mxGeometry width="50" height="50" relative="1" as="geometry">
            <mxPoint x="400" y="300" as="sourcePoint" />
            <mxPoint x="450" y="250" as="targetPoint" />
          </mxGeometry>
        </mxCell>
        <mxCell id="8Ok6UQOYoZwV1uECa3Be-8" value="" style="endArrow=classic;startArrow=classic;html=1;rounded=0;entryX=0.5;entryY=1;entryDx=0;entryDy=0;exitX=0.5;exitY=0;exitDx=0;exitDy=0;" edge="1" parent="1" source="8Ok6UQOYoZwV1uECa3Be-3" target="8Ok6UQOYoZwV1uECa3Be-1">
          <mxGeometry width="50" height="50" relative="1" as="geometry">
            <mxPoint x="400" y="300" as="sourcePoint" />
            <mxPoint x="450" y="250" as="targetPoint" />
          </mxGeometry>
        </mxCell>
      </root>
    </mxGraphModel>
  </diagram>
</mxfile>
